<?xml version="1.0" encoding="utf-8"?>
<!-- Generator: Adobe Illustrator 18.1.1, SVG Export Plug-In . SVG Version: 6.00 Build 0)  -->
<!DOCTYPE svg PUBLIC "-//W3C//DTD SVG 1.1//EN" "http://www.w3.org/Graphics/SVG/1.1/DTD/svg11.dtd">
<svg version="1.1" id="Layer_1" xmlns="http://www.w3.org/2000/svg" xmlns:xlink="http://www.w3.org/1999/xlink" x="0px" y="0px"
	 viewBox="0 0 250 250" enable-background="new 0 0 250 250" xml:space="preserve">
<g>
	<g>
		<path fill="#C6A563" d="M125,247.5c-67.5,0-122.5-55-122.5-122.5S57.5,2.5,125,2.5s122.5,55,122.5,122.5S192.5,247.5,125,247.5z"
			/>
		<path fill="#AD8C59" d="M125,5c32.1,0,62.2,12.5,84.9,35.1S245,92.9,245,125s-12.5,62.2-35.1,84.9S157.1,245,125,245
			s-62.2-12.5-84.9-35.1S5,157.1,5,125s12.5-62.2,35.1-84.9S92.9,5,125,5 M125,0C56,0,0,56,0,125s56,125,125,125s125-56,125-125
			S194,0,125,0L125,0z"/>
	</g>
	<g>
		
			<polygon fill="#594334" stroke="#443122" stroke-width="5" stroke-linecap="round" stroke-linejoin="round" stroke-miterlimit="10" points="
			27.3,107.9 64.5,93.1 78.9,111.7 45.2,142.4 		"/>
		
			<polygon fill="#594334" stroke="#443122" stroke-width="5" stroke-linecap="round" stroke-linejoin="round" stroke-miterlimit="10" points="
			125.1,213 133.5,180.7 163.9,183.4 175.7,200.6 159.1,226.9 		"/>
		
			<polygon fill="#594334" stroke="#443122" stroke-width="5" stroke-linecap="round" stroke-linejoin="round" stroke-miterlimit="10" points="
			148.7,36.3 140.7,49.7 187.1,71 195.7,47.7 		"/>
		
			<polygon fill="#594334" stroke="#443122" stroke-width="5" stroke-linecap="round" stroke-linejoin="round" stroke-miterlimit="10" points="
			85.6,164.3 85.6,209.9 43.7,189.1 		"/>
		
			<polygon fill="#594334" stroke="#443122" stroke-width="5" stroke-linecap="round" stroke-linejoin="round" stroke-miterlimit="10" points="
			205.6,93.9 215.1,129.7 198.7,142 175.9,108.4 		"/>
		
			<polygon fill="#594334" stroke="#443122" stroke-width="5" stroke-linecap="round" stroke-linejoin="round" stroke-miterlimit="10" points="
			114.6,99.4 137.5,90 148.5,106.7 148.5,125.6 126.6,135 102.2,116.9 		"/>
		
			<polygon fill="#594334" stroke="#443122" stroke-width="5" stroke-linecap="round" stroke-linejoin="round" stroke-miterlimit="10" points="
			82.5,31.6 99.7,55.9 80.4,75.1 61.9,73.2 53.5,46.8 		"/>
	</g>
</g>
<g>
	<g>
		<path fill="#999999" d="M187.9,247.2c-32.7,0-59.3-26.6-59.3-59.3s26.6-59.3,59.3-59.3s59.3,26.6,59.3,59.3
			S220.6,247.2,187.9,247.2z"/>
		<path fill="#727272" d="M187.9,131.1c31.3,0,56.8,25.5,56.8,56.8s-25.5,56.8-56.8,56.8s-56.8-25.5-56.8-56.8
			S156.6,131.1,187.9,131.1 M187.9,126.1c-34.1,0-61.8,27.7-61.8,61.8s27.7,61.8,61.8,61.8s61.8-27.7,61.8-61.8
			S222,126.1,187.9,126.1L187.9,126.1z"/>
	</g>
	<g>
		<g>
			<path fill="#FFFFFF" d="M187.8,233.2c-5.9,0-11.6-1.1-17-3.3c-5.6-2.3-10.7-5.6-15-10c-4.3-4.3-7.7-9.4-9.9-15
				c-2.2-5.4-3.3-11.2-3.3-17c0-5.9,1.1-11.6,3.3-17c2.3-5.6,5.6-10.7,10-15c4.3-4.3,9.4-7.7,15-9.9c5.4-2.2,11.2-3.3,17-3.3
				c5.9,0,11.6,1.1,17,3.3c5.6,2.3,10.7,5.6,15,9.9l1.8,1.8l-19.5,19.5l-1.8-1.8c-1.7-1.7-3.7-3-5.9-3.9c-2.1-0.9-4.4-1.3-6.7-1.3
				c-2.3,0-4.6,0.4-6.7,1.3c-2.2,0.9-4.2,2.2-5.9,3.9c-1.7,1.7-3,3.7-3.9,5.9c-0.9,2.1-1.3,4.4-1.3,6.7s0.4,4.6,1.3,6.7
				c0.9,2.2,2.2,4.2,3.9,5.9c1.7,1.7,3.7,3,5.9,3.9c2.1,0.9,4.4,1.3,6.7,1.3c2.3,0,4.6-0.4,6.7-1.3c2.2-0.9,4.2-2.2,5.9-3.9l1.8-1.8
				l19.5,19.5l-1.8,1.8c-4.3,4.3-9.4,7.7-15,10C199.4,232.1,193.7,233.2,187.8,233.2z"/>
			<path fill="#727272" d="M187.8,145.1c5.5,0,10.9,1,16.1,3.1c5.2,2.1,10,5.2,14.2,9.4l-15.9,15.9c-2-2-4.3-3.5-6.7-4.5
				c-2.4-1-5-1.5-7.6-1.5c0,0,0,0,0,0c-2.6,0-5.2,0.5-7.6,1.5c-2.4,1-4.7,2.5-6.7,4.5c-2,2-3.5,4.3-4.5,6.7c-1,2.4-1.5,5-1.5,7.6
				c0,2.6,0.5,5.2,1.5,7.6c1,2.4,2.5,4.7,4.5,6.7c2,2,4.3,3.5,6.7,4.5c2.4,1,5,1.5,7.6,1.5c0,0,0,0,0,0c2.6,0,5.2-0.5,7.6-1.5
				c2.4-1,4.7-2.5,6.7-4.5h0l15.9,15.9c-4.2,4.2-9,7.3-14.2,9.4c-5.2,2.1-10.6,3.1-16.1,3.1c-5.5,0-10.9-1-16.1-3.1
				c-5.2-2.1-10-5.2-14.2-9.4c-4.2-4.2-7.3-9-9.4-14.2c-2.1-5.2-3.1-10.6-3.1-16.1c0-5.5,1-10.9,3.1-16.1c2.1-5.2,5.2-10,9.4-14.2
				c4.2-4.2,9-7.3,14.2-9.4C176.9,146.2,182.3,145.1,187.8,145.1 M187.8,140.1L187.8,140.1c-6.2,0-12.2,1.2-18,3.5
				c-5.9,2.4-11.3,5.9-15.8,10.5c-4.6,4.6-8.1,9.9-10.5,15.8c-2.3,5.7-3.5,11.8-3.5,18c0,6.2,1.2,12.2,3.5,18
				c2.4,5.9,5.9,11.3,10.5,15.8c4.6,4.6,9.9,8.1,15.8,10.5c5.7,2.3,11.8,3.5,18,3.5c6.2,0,12.2-1.2,18-3.5
				c5.9-2.4,11.3-5.9,15.8-10.5l3.5-3.5l-3.5-3.5l-15.9-15.9l-3.5-3.5l-3.5,3.5c-1.5,1.5-3.2,2.6-5,3.4c-1.8,0.7-3.8,1.1-5.8,1.1
				c-2,0-3.9-0.4-5.8-1.1c-1.9-0.8-3.6-1.9-5-3.4c-1.5-1.5-2.6-3.2-3.4-5c-0.7-1.8-1.1-3.8-1.1-5.7c0-2,0.4-3.9,1.1-5.8
				c0.8-1.9,1.9-3.6,3.4-5c1.5-1.5,3.2-2.6,5-3.4c1.8-0.7,3.8-1.1,5.7-1.1c2,0,3.9,0.4,5.8,1.1c1.9,0.8,3.6,1.9,5,3.4l3.5,3.5
				l3.5-3.5l15.9-15.9l3.5-3.5l-3.5-3.5c-4.6-4.6-9.9-8.1-15.8-10.5C200.1,141.3,194,140.1,187.8,140.1L187.8,140.1z"/>
		</g>
	</g>
</g>
</svg>
