<?xml version="1.0" encoding="utf-8"?>
<!-- Generator: Adobe Illustrator 18.1.1, SVG Export Plug-In . SVG Version: 6.00 Build 0)  -->
<!DOCTYPE svg PUBLIC "-//W3C//DTD SVG 1.1//EN" "http://www.w3.org/Graphics/SVG/1.1/DTD/svg11.dtd">
<svg version="1.1" id="Layer_1" xmlns="http://www.w3.org/2000/svg" xmlns:xlink="http://www.w3.org/1999/xlink" x="0px" y="0px"
	 viewBox="0 0 252 144" enable-background="new 0 0 252 144" xml:space="preserve">
<circle fill="#E85E00" cx="123.5" cy="72" r="32"/>
<path fill="#E85E00" d="M172,120.3c6.7-6.6,11.7-14.4,15-22.6c3.3-8.2,5-17,5-25.7c0-8.7-1.7-17.5-5-25.7c-3.3-8.2-8.4-16-15-22.6
	l-14.1,14.1c4.7,4.7,8.3,10.2,10.6,16c2.4,5.8,3.5,12,3.5,18.2c0,6.2-1.2,12.4-3.5,18.2c-2.4,5.8-5.9,11.2-10.6,16L172,120.3
	L172,120.3z"/>
<path fill="#CECECE" d="M171.8,23.7c-6.6-6.7-14.4-11.7-22.6-15c-8.2-3.3-17-5-25.7-5c-8.7,0-17.5,1.7-25.7,5
	c-8.2,3.3-16,8.4-22.6,15c-6.7,6.6-11.7,14.4-15,22.6c-3.3,8.2-5,17-5,25.7c0,8.7,1.7,17.5,5,25.7c3.3,8.2,8.4,16,15,22.6
	c6.6,6.7,14.4,11.7,22.6,15c8.2,3.3,17,5,25.7,5c8.7,0,17.5-1.7,25.7-5c8.2-3.3,16-8.4,22.6-15l-14.1-14.1
	c-4.7,4.7-10.2,8.3-16,10.6c-5.8,2.4-12,3.5-18.2,3.5c-6.2,0-12.4-1.2-18.2-3.5c-5.8-2.4-11.2-5.9-16-10.6
	c-4.7-4.7-8.3-10.2-10.6-16c-2.4-5.8-3.5-12-3.5-18.2c0-6.2,1.2-12.4,3.5-18.2c2.4-5.8,5.9-11.2,10.6-16c4.7-4.7,10.2-8.3,16-10.6
	c5.8-2.4,12-3.5,18.2-3.5c6.2,0,12.4,1.2,18.2,3.5c5.8,2.4,11.2,5.9,16,10.6L171.8,23.7L171.8,23.7z"/>
</svg>
